<svg width="133" height="149" viewBox="0 0 133 149" fill="none" xmlns="http://www.w3.org/2000/svg">
<path d="M11.088 142.558V145H1.771V129.094H4.73V142.558H11.088ZM19.173 142.613C19.745 142.613 20.2547 142.518 20.702 142.327C21.1567 142.136 21.538 141.869 21.846 141.524C22.154 141.179 22.3887 140.761 22.55 140.27C22.7187 139.779 22.803 139.229 22.803 138.62V129.094H25.762V138.62C25.762 139.566 25.608 140.442 25.3 141.249C24.9993 142.048 24.563 142.741 23.991 143.328C23.4263 143.907 22.737 144.362 21.923 144.692C21.109 145.015 20.1923 145.176 19.173 145.176C18.1463 145.176 17.226 145.015 16.412 144.692C15.598 144.362 14.905 143.907 14.333 143.328C13.7683 142.741 13.332 142.048 13.024 141.249C12.7233 140.442 12.573 139.566 12.573 138.62V129.094H15.532V138.609C15.532 139.218 15.6127 139.768 15.774 140.259C15.9427 140.75 16.181 141.172 16.489 141.524C16.8043 141.869 17.1857 142.136 17.633 142.327C18.0877 142.518 18.601 142.613 19.173 142.613ZM40.0551 130.183C40.0551 130.52 39.9598 130.828 39.7691 131.107L31.6071 142.635H39.8681V145H27.7681V143.834C27.7681 143.687 27.7938 143.548 27.8451 143.416C27.8965 143.277 27.9625 143.148 28.0431 143.031L36.2271 131.448H28.2851V129.094H40.0551V130.183ZM50.739 131.448V135.859H56.305V138.136H50.739V142.635H57.801V145H47.769V129.094H57.801V131.448H50.739ZM69.7403 142.558V145H60.4233V129.094H63.3823V142.558H69.7403ZM79.5066 131.448V136.156H85.4686V138.521H79.5066V145H76.5366V129.094H86.5686V131.448H79.5066ZM96.091 138.994L94.155 133.703C94.0597 133.468 93.9607 133.19 93.858 132.867C93.7553 132.544 93.6527 132.196 93.55 131.822C93.4547 132.196 93.3557 132.548 93.253 132.878C93.1503 133.201 93.0513 133.483 92.956 133.725L91.031 138.994H96.091ZM101.316 145H99.028C98.7713 145 98.5623 144.938 98.401 144.813C98.2397 144.681 98.1187 144.52 98.038 144.329L96.85 141.084H90.261L89.073 144.329C89.0143 144.498 88.9007 144.652 88.732 144.791C88.5633 144.93 88.3543 145 88.105 145H85.795L92.054 129.094H95.068L101.316 145ZM107.769 136.662C108.327 136.662 108.811 136.592 109.221 136.453C109.639 136.314 109.98 136.123 110.244 135.881C110.516 135.632 110.717 135.338 110.849 135.001C110.981 134.664 111.047 134.293 111.047 133.89C111.047 133.083 110.78 132.464 110.244 132.031C109.716 131.598 108.906 131.382 107.813 131.382H105.921V136.662H107.769ZM115.381 145H112.708C112.202 145 111.836 144.802 111.608 144.406L108.264 139.313C108.14 139.122 108 138.987 107.846 138.906C107.7 138.825 107.48 138.785 107.186 138.785H105.921V145H102.962V129.094H107.813C108.891 129.094 109.815 129.208 110.585 129.435C111.363 129.655 111.997 129.967 112.488 130.37C112.987 130.773 113.354 131.257 113.588 131.822C113.823 132.379 113.94 132.995 113.94 133.67C113.94 134.205 113.86 134.711 113.698 135.188C113.544 135.665 113.317 136.097 113.016 136.486C112.723 136.875 112.356 137.216 111.916 137.509C111.484 137.802 110.989 138.033 110.431 138.202C110.622 138.312 110.798 138.444 110.959 138.598C111.121 138.745 111.267 138.921 111.399 139.126L115.381 145ZM132.053 137.047C132.053 138.213 131.859 139.295 131.47 140.292C131.089 141.282 130.546 142.14 129.842 142.866C129.138 143.592 128.291 144.16 127.301 144.571C126.311 144.974 125.211 145.176 124.001 145.176C122.799 145.176 121.702 144.974 120.712 144.571C119.722 144.16 118.872 143.592 118.16 142.866C117.456 142.14 116.91 141.282 116.521 140.292C116.133 139.295 115.938 138.213 115.938 137.047C115.938 135.881 116.133 134.803 116.521 133.813C116.91 132.816 117.456 131.954 118.16 131.228C118.872 130.502 119.722 129.937 120.712 129.534C121.702 129.123 122.799 128.918 124.001 128.918C124.808 128.918 125.567 129.013 126.278 129.204C126.99 129.387 127.642 129.651 128.236 129.996C128.83 130.333 129.362 130.748 129.831 131.239C130.308 131.723 130.711 132.266 131.041 132.867C131.371 133.468 131.621 134.121 131.789 134.825C131.965 135.529 132.053 136.27 132.053 137.047ZM129.028 137.047C129.028 136.174 128.911 135.393 128.676 134.704C128.442 134.007 128.108 133.417 127.675 132.933C127.243 132.449 126.715 132.079 126.091 131.822C125.475 131.565 124.779 131.437 124.001 131.437C123.224 131.437 122.524 131.565 121.9 131.822C121.284 132.079 120.756 132.449 120.316 132.933C119.884 133.417 119.55 134.007 119.315 134.704C119.081 135.393 118.963 136.174 118.963 137.047C118.963 137.92 119.081 138.704 119.315 139.401C119.55 140.09 119.884 140.677 120.316 141.161C120.756 141.638 121.284 142.004 121.9 142.261C122.524 142.518 123.224 142.646 124.001 142.646C124.779 142.646 125.475 142.518 126.091 142.261C126.715 142.004 127.243 141.638 127.675 141.161C128.108 140.677 128.442 140.09 128.676 139.401C128.911 138.704 129.028 137.92 129.028 137.047Z" fill="#B1F7FD"/>
<path d="M90 102V95C90 89.4772 85.5228 85 80 85H58" stroke="#B1F7FD" stroke-width="5"/>
<path d="M52 42H78.5M74.5294 40V24M65.5294 40V24M56 40V24" stroke="#B1F7FD" stroke-width="4"/>
<circle cx="66.5" cy="61.5" r="58" stroke="#B1F7FD" stroke-width="7"/>
<path d="M23 95.5C39.6499 78.8093 46.027 80.484 71.5 97.5C96.973 114.516 115.5 92.5 115.5 92.5" stroke="#B1F7FD" stroke-width="7"/>
<path d="M74.1064 46.5L78.208 83.5H53.6914L56.4258 46.5H74.1064Z" stroke="#B1F7FD" stroke-width="5"/>
<rect x="65.5" y="50.5" width="3" height="7" stroke="#B1F7FD"/>
<rect x="60.5" y="66.5" width="3" height="7" stroke="#B1F7FD"/>
<path d="M64.6953 13.8662C64.8751 13.7278 65.1249 13.7278 65.3047 13.8662L77.9551 23.6035C78.3332 23.8946 78.1275 24.4997 77.6504 24.5H52.3496C51.8725 24.4997 51.6668 23.8946 52.0449 23.6035L64.6953 13.8662Z" fill="#B1F7FD" stroke="#B1F7FD"/>
</svg>
